<svg width="18" height="20" viewBox="0 0 18 20" fill="none" xmlns="http://www.w3.org/2000/svg">
<path d="M17 8.11111H1M12.5556 1V4.55556M5.44444 1V4.55556M5.26667 18.7778H12.7333C14.2268 18.7778 14.9735 18.7778 15.544 18.4871C16.0457 18.2315 16.4537 17.8235 16.7094 17.3218C17 16.7513 17 16.0046 17 14.5111V7.04445C17 5.55097 17 4.80423 16.7094 4.2338C16.4537 3.73204 16.0457 3.32409 15.544 3.06843C14.9735 2.77778 14.2268 2.77778 12.7333 2.77778H5.26667C3.77319 2.77778 3.02646 2.77778 2.45603 3.06843C1.95426 3.32409 1.54631 3.73204 1.29065 4.2338C1 4.80423 1 5.55097 1 7.04444V14.5111C1 16.0046 1 16.7513 1.29065 17.3218C1.54631 17.8235 1.95426 18.2315 2.45603 18.4871C3.02646 18.7778 3.77319 18.7778 5.26667 18.7778Z" stroke="#3B3D49" stroke-linecap="round" stroke-linejoin="round"/>
</svg>
