<svg width="18" height="18" viewBox="0 0 18 18" fill="none" xmlns="http://www.w3.org/2000/svg">
<path fill-rule="evenodd" clip-rule="evenodd" d="M6 0.9C6 0.402944 5.59706 0 5.1 0C4.60294 0 4.2 0.402944 4.2 0.9V2.7H3.3C1.47746 2.7 0 4.17746 0 6V14.7C0 15.5769 0.342046 16.374 0.9 16.965V17.1H1.03504C1.62604 17.658 2.42308 18 3.3 18H14.7C15.5769 18 16.374 17.658 16.965 17.1H17.1V16.965C17.658 16.374 18 15.5769 18 14.7V6C18 4.17746 16.5225 2.7 14.7 2.7H13.8V0.9C13.8 0.402944 13.3971 0 12.9 0C12.4029 0 12 0.402944 12 0.9V2.7H6V0.9ZM14.7 4.5C15.5284 4.5 16.2 5.17157 16.2 6V6.6H1.8V6C1.8 5.17157 2.47157 4.5 3.3 4.5H14.7Z" fill="current"/>
</svg>
