<svg width="current" height="current" viewBox="0 0 18 16" fill="none" xmlns="http://www.w3.org/2000/svg">
<path d="M1 7.33395C1 5.3822 2.5822 3.8 4.53395 3.8C4.81668 3.8 5.07221 3.6315 5.18359 3.37163L5.7844 1.96973C6.03653 1.38144 6.61499 1 7.25503 1H10.745C11.385 1 11.9635 1.38143 12.2156 1.96973L12.8164 3.37163C12.9278 3.6315 13.1833 3.8 13.4661 3.8C15.4178 3.8 17 5.3822 17 7.33395V11C17 13.2091 15.2091 15 13 15H5C2.79086 15 1 13.2091 1 11V7.33395Z" stroke="#3B3D49" stroke-width="1.5"/>
<path d="M6.6 9C6.6 10.3255 7.67452 11.4 9 11.4C10.3255 11.4 11.4 10.3255 11.4 9C11.4 7.67452 10.3255 6.6 9 6.6C7.67452 6.6 6.6 7.67452 6.6 9Z" stroke="#3B3D49" stroke-width="1.5"/>
</svg>
