<svg width="12" height="10" viewBox="0 0 12 10" fill="none" xmlns="http://www.w3.org/2000/svg">
<path d="M3.53143 0C1.62455 0 0 1.4313 0 3.2902C0 4.57258 0.59818 5.65222 1.39096 6.54657C2.18103 7.43783 3.20033 8.18595 4.12181 8.81209L5.71172 9.89244C5.88584 10.0108 6.11416 10.0108 6.28828 9.89244L7.87819 8.81209C8.79967 8.18595 9.81898 7.43783 10.609 6.54657C11.4018 5.65222 12 4.57258 12 3.2902C12 1.4313 10.3754 0 8.46857 0C7.48562 0 6.62068 0.462671 6 1.06133C5.37932 0.462671 4.51438 0 3.53143 0Z" fill="#FF6E7F"/>
</svg>
