<svg width="18" height="19" viewBox="0 0 18 19" fill="none" xmlns="http://www.w3.org/2000/svg">
<path d="M10.9302 0.662276C9.7949 -0.22076 8.2051 -0.220758 7.06977 0.662277L1.21377 5.21694C0.447933 5.8126 0 6.72846 0 7.69867V14.8572C0 16.5935 1.40762 18.0012 3.144 18.0012H5.7C6.52843 18.0012 7.2 17.3296 7.2 16.5012V13.3796C7.2 13.1477 7.24047 13.0199 7.28243 12.9527C7.43357 12.7103 7.63538 12.5016 7.8756 12.3414C8.20824 12.1197 8.59954 12.0012 9 12.0012C9.40046 12.0012 9.79176 12.1197 10.1244 12.3414C10.3646 12.5016 10.5664 12.7103 10.7176 12.9527C10.7595 13.0199 10.8 13.1477 10.8 13.3796V16.5012C10.8 17.3296 11.4716 18.0012 12.3 18.0012H14.856C16.5924 18.0012 18 16.5935 18 14.8572V7.69867C18 6.72846 17.5521 5.81259 16.7862 5.21694L10.9302 0.662276Z" fill="current"/>
</svg>
