<svg width="14" height="14" viewBox="0 0 14 14" fill="none" xmlns="http://www.w3.org/2000/svg">
<path fill-rule="evenodd" clip-rule="evenodd" d="M4.87089 13.3269L11.5828 4.43407C11.9475 3.95451 12.0772 3.40008 11.9556 2.83554C11.8503 2.32233 11.5422 1.83436 11.0802 1.46417L9.95343 0.547124C8.97259 -0.25214 7.75667 -0.168007 7.05954 0.749044L6.30568 1.75107C6.2084 1.87643 6.23272 2.06152 6.35431 2.16248C6.35431 2.16248 8.25925 3.72735 8.29978 3.76101C8.42948 3.88721 8.52675 4.05547 8.55107 4.25739C8.5916 4.65282 8.3241 5.023 7.9269 5.07348C7.74046 5.09872 7.56212 5.03983 7.43243 4.93046L5.43021 3.29827C5.33294 3.2234 5.18703 3.23938 5.10597 3.34034L0.347677 9.65032C0.0396449 10.0457 -0.0657346 10.559 0.0396449 11.0553L0.647603 13.756C0.680028 13.899 0.80162 14 0.94753 14L3.62255 13.9663C4.10892 13.9579 4.56286 13.7308 4.87089 13.3269ZM9 12C8.44772 12 8 12.4477 8 13C8 13.5523 8.44772 14 9 14H13C13.5523 14 14 13.5523 14 13C14 12.4477 13.5523 12 13 12H9Z" fill="white"/>
</svg>
