<svg width="16" height="16" viewBox="0 0 16 16" fill="none" xmlns="http://www.w3.org/2000/svg">
<path d="M0.464004 13.608L0.448004 13.624C0.232004 13.152 0.0960036 12.616 0.0400036 12.024C0.0960036 12.608 0.248004 13.136 0.464004 13.608Z" fill="white"/>
<path d="M5.6 6.704C6.65155 6.704 7.504 5.85155 7.504 4.8C7.504 3.74845 6.65155 2.896 5.6 2.896C4.54845 2.896 3.696 3.74845 3.696 4.8C3.696 5.85155 4.54845 6.704 5.6 6.704Z" fill="white"/>
<path d="M11.352 0H4.648C1.736 0 0 1.736 0 4.648V11.352C0 12.224 0.152004 12.984 0.448004 13.624C1.136 15.144 2.608 16 4.648 16H11.352C14.264 16 16 14.264 16 11.352V4.648C16 1.736 14.264 0 11.352 0ZM14.696 8.4C14.072 7.864 13.064 7.864 12.44 8.4L9 11C8.376 11.536 7.48 11.792 6.856 11.256L6.5 10.5C5.932 10.004 5.14 10.068 4.5 10.5L1.48 12.928C1.304 12.48 1.2 11.96 1.2 11.352V4.648C1.2 2.392 2.392 1.2 4.648 1.2H11.352C13.608 1.2 14.8 2.392 14.8 4.648V8.488L14.696 8.4Z" fill="white"/>
</svg>
