<svg width="18" height="20" viewBox="0 0 18 20" fill="none" xmlns="http://www.w3.org/2000/svg">
<path d="M12.5556 4.55556V3.84444C12.5556 2.8488 12.5556 2.35097 12.3618 1.97068C12.1913 1.63617 11.9194 1.36421 11.5849 1.19377C11.2046 1 10.7068 1 9.71111 1H8.28889C7.29324 1 6.79542 1 6.41513 1.19377C6.08062 1.36421 5.80865 1.63617 5.63821 1.97068C5.44444 2.35097 5.44444 2.8488 5.44444 3.84444V4.55556M7.22222 9.44445V13.8889M10.7778 9.44445V13.8889M1 4.55556H17M15.2222 4.55556V14.5111C15.2222 16.0046 15.2222 16.7513 14.9316 17.3218C14.6759 17.8235 14.268 18.2315 13.7662 18.4871C13.1958 18.7778 12.449 18.7778 10.9556 18.7778H7.04445C5.55097 18.7778 4.80423 18.7778 4.2338 18.4871C3.73204 18.2315 3.32409 17.8235 3.06843 17.3218C2.77778 16.7513 2.77778 16.0046 2.77778 14.5111V4.55556" stroke="#3B3D49" stroke-width="1.5" stroke-linecap="round" stroke-linejoin="round"/>
</svg>
