<svg width="14" height="16" viewBox="0 0 14 16" fill="none" xmlns="http://www.w3.org/2000/svg">
<path d="M7.13225 0.0021872C6.60725 -0.015181 6.08397 0.0710272 5.59229 0.25589C5.10061 0.440753 4.65015 0.720649 4.26664 1.0796C3.88312 1.43855 3.57407 1.86952 3.35711 2.34791C3.14016 2.8263 3.01955 3.34274 3.00219 3.86774C2.98482 4.39274 3.07103 4.91602 3.25589 5.40771C3.44075 5.89939 3.72065 6.34985 4.0796 6.73336C4.43855 7.11687 4.86952 7.42593 5.34791 7.64288C5.8263 7.85984 6.34274 7.98044 6.86774 7.99781C7.39274 8.01518 7.91602 7.92897 8.4077 7.74411C8.89939 7.55924 9.34984 7.27935 9.73336 6.9204C10.1169 6.56145 10.4259 6.13047 10.6429 5.65208C10.8598 5.17369 10.9804 4.65725 10.9978 4.13225C11.0152 3.60726 10.929 3.08398 10.7441 2.59229C10.5592 2.10061 10.2793 1.65015 9.9204 1.26664C9.56145 0.883126 9.13047 0.57407 8.65208 0.357115C8.17369 0.14016 7.65725 0.0195554 7.13225 0.0021872Z" fill="current"/>
<path d="M7 10C5.51826 10 4.06961 10.4384 2.83723 11.26C1.60483 12.0816 0.64394 13.2496 0.0764317 14.6166C-0.0516797 14.9252 -0.0172066 15.2773 0.168312 15.5552C0.35383 15.8331 0.665879 16 1 16L13 16C13.3341 16 13.6462 15.8331 13.8317 15.5552C14.0172 15.2773 14.0517 14.9252 13.9236 14.6166C13.3561 13.2496 12.3952 12.0816 11.1628 11.26C9.93039 10.4384 8.48174 10 7 10Z" fill="current"/>
</svg>
