<svg width="13" height="12" viewBox="0 0 13 12" fill="none" xmlns="http://www.w3.org/2000/svg">
<path fill-rule="evenodd" clip-rule="evenodd" d="M4.5 0.6C4.5 0.268629 4.23137 0 3.9 0C3.56863 0 3.3 0.268629 3.3 0.6V1.8H2.7C1.48497 1.8 0.5 2.78497 0.5 4V9.8C0.5 10.3846 0.728031 10.916 1.1 11.31V11.4H1.19002C1.58403 11.772 2.11538 12 2.7 12H10.3C10.8846 12 11.416 11.772 11.81 11.4H11.9V11.31C12.272 10.916 12.5 10.3846 12.5 9.8V4C12.5 2.78497 11.515 1.8 10.3 1.8H9.7V0.6C9.7 0.268629 9.43137 0 9.1 0C8.76863 0 8.5 0.268629 8.5 0.6V1.8H4.5V0.6ZM10.3 3C10.8523 3 11.3 3.44772 11.3 4V4.4H1.7V4C1.7 3.44772 2.14772 3 2.7 3H10.3Z" fill="#E2E4EA"/>
</svg>
