<svg width="100%" height="100%" viewBox="0 0 358 414" fill="none" xmlns="http://www.w3.org/2000/svg">
<path d="M194.347 39.0673C189.218 65.083 148.199 87.572 148.199 87.572C148.199 87.572 107.18 65.083 102.051 39.0673C96.9946 13.4326 111.869 0.0462806 127.241 0.0462806C131.349 -0.210832 135.453 0.606685 139.134 2.41554C142.816 4.22439 145.944 6.95993 148.199 10.3434C150.454 6.95993 153.582 4.22439 157.264 2.41554C160.945 0.606685 165.049 -0.210832 169.156 0.0462806C184.529 0.0462806 199.403 13.4326 194.347 39.0673Z" fill="#FFA0AB"/>
<path fill-rule="evenodd" clip-rule="evenodd" d="M119.008 79.2891C119.008 62.8575 132.329 49.5371 148.76 49.5371C165.192 49.5371 178.513 62.8575 178.513 79.2891L178.513 172.207C178.543 155.802 191.852 142.512 208.265 142.512C224.696 142.512 238.017 155.832 238.017 172.264V241.522L238.017 187.76C238.017 171.329 251.337 158.008 267.769 158.008C284.2 158.008 297.521 171.329 297.521 187.76V202.561C297.561 186.164 310.866 172.884 327.273 172.884C343.705 172.884 357.025 186.204 357.025 202.636V232.388C357.025 232.949 357.01 233.506 356.979 234.059C357.01 235.383 357.025 236.748 357.025 238.156C357.025 339.379 277.102 413.999 178.513 413.999C79.9228 413.999 0 339.379 0 238.156C0 237.004 0.0103493 235.88 0.0309577 234.784C0.0104331 234.488 0 234.19 0 233.888V178.647C0 162.215 13.3205 148.895 29.7521 148.895C46.1837 148.895 59.5042 162.215 59.5042 178.647V211.962C59.5043 211.962 59.5044 211.962 59.5045 211.963V245.404C59.5045 261.836 72.825 275.156 89.2566 275.156C105.688 275.156 119.009 261.836 119.009 245.404V89.2061C119.009 89.1595 119.009 89.113 119.008 89.0665V79.2891Z" fill="#FADFE2"/>
</svg>
