<svg width="22" height="22" viewBox="0 0 22 22" fill="none" xmlns="http://www.w3.org/2000/svg">
<path d="M7 13C7 13 8.5 15 11 15C13.5 15 15 13 15 13M14 9.25H14.01M7 9.25H9M21 11C21 16.5228 16.5228 21 11 21C5.47715 21 1 16.5228 1 11C1 5.47715 5.47715 1 11 1C16.5228 1 21 5.47715 21 11ZM14.5 9.25C14.5 9.52614 14.2761 9.75 14 9.75C13.7239 9.75 13.5 9.52614 13.5 9.25C13.5 8.97386 13.7239 8.75 14 8.75C14.2761 8.75 14.5 8.97386 14.5 9.25Z" stroke="#3B3D49" stroke-linecap="round" stroke-linejoin="round"/>
</svg>
