<svg width="89" height="32" viewBox="0 0 89 32" fill="none" xmlns="http://www.w3.org/2000/svg">
<circle cx="16" cy="16" r="16" fill="#FF6E7F"/>
<path d="M19.108 10C17.841 10 16.707 10.616 16 11.561C15.293 10.616 14.159 10 12.892 10C10.743 10 9 11.75 9 13.913C9 14.746 9.133 15.516 9.364 16.23C10.47 19.73 13.879 21.823 15.566 22.397C15.804 22.481 16.196 22.481 16.434 22.397C18.121 21.823 21.53 19.73 22.636 16.23C22.867 15.516 23 14.746 23 13.913C23 11.75 21.257 10 19.108 10Z" fill="white"/>
<path d="M38.7572 14.4543C38.424 14.2544 38 14.4944 38 14.8831V17.9169C38 18.3056 38.424 18.5456 38.7572 18.3457L41.2854 16.8287C41.6091 16.6345 41.6091 16.1655 41.2854 15.9713L38.7572 14.4543Z" fill="#FF6E7F"/>
<path d="M47.7572 14.4543C47.424 14.2544 47 14.4944 47 14.8831V17.9169C47 18.3056 47.424 18.5456 47.7572 18.3457L50.2854 16.8287C50.6091 16.6345 50.6091 16.1655 50.2854 15.9713L47.7572 14.4543Z" fill="#FF6E7F"/>
<circle cx="73" cy="16" r="16" fill="#DBDCDE"/>
<path d="M76.108 10C74.841 10 73.707 10.616 73 11.561C72.293 10.616 71.159 10 69.892 10C67.743 10 66 11.75 66 13.913C66 14.746 66.133 15.516 66.364 16.23C67.47 19.73 70.879 21.823 72.566 22.397C72.804 22.481 73.196 22.481 73.434 22.397C75.121 21.823 78.53 19.73 79.636 16.23C79.867 15.516 80 14.746 80 13.913C80 11.75 78.257 10 76.108 10Z" fill="white"/>
</svg>
