<svg width="22" height="20" viewBox="0 0 22 20" fill="none" xmlns="http://www.w3.org/2000/svg">
<path d="M2.91854 18.3744C2.72328 18.5696 2.72328 18.8862 2.91854 19.0815C3.1138 19.2767 3.43038 19.2767 3.62565 19.0815L2.91854 18.3744ZM9.86863 12.1314L10.2222 12.4849L9.86863 12.1314ZM12.1314 12.1314L11.7778 12.4849V12.4849L12.1314 12.1314ZM18.3304 19.0375C18.5256 19.2327 18.8422 19.2327 19.0375 19.0375C19.2327 18.8422 19.2327 18.5256 19.0375 18.3304L18.3304 19.0375ZM10.691 11.4632L10.5365 10.9876V10.9876L10.691 11.4632ZM11.309 11.4632L11.4635 10.9876V10.9876L11.309 11.4632ZM15.8686 10.1314L15.5151 9.77782L15.8686 10.1314ZM18.1314 10.1314L18.4849 9.77782L18.1314 10.1314ZM16.691 9.46316L16.5365 8.98763L16.691 9.46316ZM17.309 9.46316L17.4635 8.98763L17.309 9.46316ZM2.63803 18.673L2.41103 19.1185L2.63803 18.673ZM1.32698 17.362L0.881477 17.589L1.32698 17.362ZM20.673 17.362L21.1185 17.589L20.673 17.362ZM19.362 18.673L19.589 19.1185L19.362 18.673ZM19.362 1.32698L19.589 0.881477L19.362 1.32698ZM20.673 2.63803L21.1185 2.41103L20.673 2.63803ZM2.63803 1.32698L2.41103 0.881477L2.63803 1.32698ZM1.32698 2.63803L0.881477 2.41103L1.32698 2.63803ZM3.62565 19.0815L10.2222 12.4849L9.51508 11.7778L2.91854 18.3744L3.62565 19.0815ZM11.7778 12.4849L18.3304 19.0375L19.0375 18.3304L12.4849 11.7778L11.7778 12.4849ZM10.2222 12.4849C10.426 12.2811 10.5579 12.1497 10.6663 12.0577C10.7702 11.9695 10.8191 11.9473 10.8455 11.9387L10.5365 10.9876C10.3345 11.0532 10.1703 11.1671 10.0191 11.2954C9.87237 11.42 9.70725 11.5856 9.51508 11.7778L10.2222 12.4849ZM12.4849 11.7778C12.2928 11.5856 12.1276 11.42 11.9809 11.2954C11.8297 11.1671 11.6655 11.0532 11.4635 10.9876L11.1545 11.9387C11.1809 11.9473 11.2298 11.9695 11.3337 12.0577C11.4421 12.1497 11.574 12.2811 11.7778 12.4849L12.4849 11.7778ZM10.8455 11.9387C10.9459 11.9061 11.0541 11.9061 11.1545 11.9387L11.4635 10.9876C11.1623 10.8897 10.8377 10.8897 10.5365 10.9876L10.8455 11.9387ZM15.5151 9.77782L12.6464 12.6464L13.3536 13.3536L16.2222 10.4849L15.5151 9.77782ZM21.3536 12.6464L18.4849 9.77782L17.7778 10.4849L20.6464 13.3536L21.3536 12.6464ZM16.2222 10.4849C16.426 10.2811 16.5579 10.1497 16.6663 10.0577C16.7702 9.96955 16.8191 9.94726 16.8455 9.93869L16.5365 8.98763C16.3345 9.05324 16.1703 9.16705 16.0191 9.29541C15.8724 9.41997 15.7073 9.58564 15.5151 9.77782L16.2222 10.4849ZM18.4849 9.77782C18.2927 9.58564 18.1276 9.41997 17.9809 9.29541C17.8297 9.16705 17.6655 9.05324 17.4635 8.98763L17.1545 9.93868C17.1809 9.94726 17.2298 9.96955 17.3337 10.0577C17.4421 10.1497 17.574 10.2811 17.7778 10.4849L18.4849 9.77782ZM16.8455 9.93869C16.9459 9.90606 17.0541 9.90606 17.1545 9.93869L17.4635 8.98763C17.1623 8.88974 16.8377 8.88974 16.5365 8.98763L16.8455 9.93869ZM5.8 1.5H16.2V0.5H5.8V1.5ZM20.5 5.8V14.2H21.5V5.8H20.5ZM16.2 18.5H5.8V19.5H16.2V18.5ZM1.5 14.2V5.8H0.5V14.2H1.5ZM5.8 18.5C4.95167 18.5 4.34549 18.4996 3.87032 18.4608C3.40099 18.4224 3.10366 18.3491 2.86502 18.2275L2.41103 19.1185C2.81413 19.3239 3.25771 19.4141 3.78889 19.4575C4.31423 19.5004 4.96817 19.5 5.8 19.5V18.5ZM0.5 14.2C0.5 15.0318 0.499611 15.6858 0.542533 16.2111C0.585932 16.7423 0.676087 17.1859 0.881477 17.589L1.77248 17.135C1.65089 16.8963 1.57756 16.599 1.53921 16.1297C1.50039 15.6545 1.5 15.0483 1.5 14.2H0.5ZM2.86502 18.2275C2.39462 17.9878 2.01217 17.6054 1.77248 17.135L0.881477 17.589C1.21703 18.2475 1.75247 18.783 2.41103 19.1185L2.86502 18.2275ZM20.5 14.2C20.5 15.0483 20.4996 15.6545 20.4608 16.1297C20.4224 16.599 20.3491 16.8963 20.2275 17.135L21.1185 17.589C21.3239 17.1859 21.4141 16.7423 21.4575 16.2111C21.5004 15.6858 21.5 15.0318 21.5 14.2H20.5ZM16.2 19.5C17.0318 19.5 17.6858 19.5004 18.2111 19.4575C18.7423 19.4141 19.1859 19.3239 19.589 19.1185L19.135 18.2275C18.8963 18.3491 18.599 18.4224 18.1297 18.4608C17.6545 18.4996 17.0483 18.5 16.2 18.5V19.5ZM20.2275 17.135C19.9878 17.6054 19.6054 17.9878 19.135 18.2275L19.589 19.1185C20.2475 18.783 20.783 18.2475 21.1185 17.589L20.2275 17.135ZM16.2 1.5C17.0483 1.5 17.6545 1.50039 18.1297 1.53921C18.599 1.57756 18.8963 1.65089 19.135 1.77248L19.589 0.881477C19.1859 0.676087 18.7423 0.585932 18.2111 0.542533C17.6858 0.499611 17.0318 0.5 16.2 0.5V1.5ZM21.5 5.8C21.5 4.96817 21.5004 4.31423 21.4575 3.78889C21.4141 3.25771 21.3239 2.81413 21.1185 2.41103L20.2275 2.86502C20.3491 3.10366 20.4224 3.40099 20.4608 3.87032C20.4996 4.34549 20.5 4.95167 20.5 5.8H21.5ZM19.135 1.77248C19.6054 2.01217 19.9878 2.39462 20.2275 2.86502L21.1185 2.41103C20.783 1.75247 20.2475 1.21703 19.589 0.881477L19.135 1.77248ZM5.8 0.5C4.96817 0.5 4.31423 0.499611 3.78889 0.542533C3.25771 0.585932 2.81413 0.676087 2.41103 0.881477L2.86502 1.77248C3.10366 1.65089 3.40099 1.57756 3.87032 1.53921C4.34549 1.50039 4.95167 1.5 5.8 1.5V0.5ZM1.5 5.8C1.5 4.95167 1.50039 4.34549 1.53921 3.87032C1.57756 3.40099 1.65089 3.10366 1.77248 2.86502L0.881477 2.41103C0.676087 2.81413 0.585932 3.25771 0.542533 3.78889C0.499611 4.31423 0.5 4.96817 0.5 5.8H1.5ZM2.41103 0.881477C1.75247 1.21703 1.21703 1.75247 0.881477 2.41103L1.77248 2.86502C2.01217 2.39462 2.39462 2.01217 2.86502 1.77248L2.41103 0.881477ZM7.5 6.5C7.5 7.05228 7.05228 7.5 6.5 7.5V8.5C7.60457 8.5 8.5 7.60457 8.5 6.5H7.5ZM6.5 7.5C5.94772 7.5 5.5 7.05228 5.5 6.5H4.5C4.5 7.60457 5.39543 8.5 6.5 8.5V7.5ZM5.5 6.5C5.5 5.94772 5.94772 5.5 6.5 5.5V4.5C5.39543 4.5 4.5 5.39543 4.5 6.5H5.5ZM6.5 5.5C7.05228 5.5 7.5 5.94772 7.5 6.5H8.5C8.5 5.39543 7.60457 4.5 6.5 4.5V5.5Z" fill="#3B3D49"/>
</svg>
