<svg width="18" height="18" viewBox="0 0 18 18" fill="none" xmlns="http://www.w3.org/2000/svg">
<path d="M7.25 0C11.2541 0 14.5 3.24594 14.5 7.25C14.5 8.9819 13.8927 10.5719 12.8795 11.8188L17.7803 16.7197C18.0732 17.0126 18.0732 17.4874 17.7803 17.7803C17.5141 18.0466 17.0974 18.0708 16.8038 17.8529L16.7197 17.7803L11.8188 12.8795C10.5719 13.8927 8.9819 14.5 7.25 14.5C3.24594 14.5 0 11.2541 0 7.25C0 3.24594 3.24594 0 7.25 0ZM7.25 1.5C4.07436 1.5 1.5 4.07436 1.5 7.25C1.5 10.4256 4.07436 13 7.25 13C10.4256 13 13 10.4256 13 7.25C13 4.07436 10.4256 1.5 7.25 1.5Z" fill="#3B3D49"/>
</svg>
