<svg width="19" height="19" viewBox="0 0 19 19" fill="none" xmlns="http://www.w3.org/2000/svg">
<path d="M10.4444 1.47222V4.02222C10.4444 5.60904 10.4444 6.40245 10.7533 7.00853C11.0249 7.54165 11.4583 7.9751 11.9915 8.24674C12.5976 8.55556 13.391 8.55556 14.9778 8.55556H17.5278M18 10.4333V13.4667C18 15.0535 18 15.8469 17.6912 16.453C17.4195 16.9861 16.9861 17.4195 16.453 17.6912C15.8469 18 15.0535 18 13.4667 18H5.53333C3.94652 18 3.15311 18 2.54703 17.6912C2.0139 17.4195 1.58046 16.9861 1.30881 16.453C1 15.8469 1 15.0535 1 13.4667V5.53333C1 3.94652 1 3.15311 1.30881 2.54703C1.58046 2.0139 2.0139 1.58046 2.54703 1.30881C3.15311 1 3.94652 1 5.53333 1H8.56668C9.25968 1 9.60619 1 9.93227 1.07829C10.2214 1.14769 10.4977 1.26217 10.7513 1.41752C11.0372 1.59274 11.2822 1.83775 11.7722 2.32778L16.6722 7.22777C17.1622 7.7178 17.4073 7.96282 17.5825 8.24875C17.7378 8.50225 17.8523 8.77863 17.9217 9.06773C18 9.39381 18 9.74032 18 10.4333Z" stroke="#3B3D49" stroke-linecap="round" stroke-linejoin="round"/>
<path d="M4.5 10.5H8.5" stroke="#3B3D49" stroke-linecap="round"/>
<path d="M4.5 13.5H12.5" stroke="#3B3D49" stroke-linecap="round"/>
</svg>
